<?xml version="1.0" standalone="no"?>
<!DOCTYPE svg PUBLIC "-//W3C//DTD SVG 20010904//EN"
 "http://www.w3.org/TR/2001/REC-SVG-20010904/DTD/svg10.dtd">
<svg version="1.0" xmlns="http://www.w3.org/2000/svg"
 width="15.000000pt" height="15.000000pt" viewBox="0 0 24.000000 24.000000"
 preserveAspectRatio="xMidYMid meet">

<g transform="translate(0.000000,24.000000) scale(0.100000,-0.100000)"
fill="#000000" stroke="none">
<path d="M11 120 l0 -125 54 58 c30 32 55 62 55 67 0 5 -25 35 -55 67 l-54 58
0 -125z"/>
<path d="M50 223 c0 -5 20 -28 43 -51 39 -38 45 -41 57 -27 8 9 9 19 4 24 -21
19 -104 62 -104 54z"/>
<path d="M160 135 c-10 -12 -10 -18 0 -30 15 -19 29 -19 54 0 20 15 20 15 0
30 -25 19 -39 19 -54 0z"/>
<path d="M92 67 c-23 -23 -42 -46 -42 -51 0 -8 85 37 105 55 6 6 4 15 -6 24
-13 13 -20 10 -57 -28z"/>
</g>
</svg>
