<?xml version="1.0" standalone="no"?>
<!DOCTYPE svg PUBLIC "-//W3C//DTD SVG 20010904//EN"
 "http://www.w3.org/TR/2001/REC-SVG-20010904/DTD/svg10.dtd">
<svg version="1.0" xmlns="http://www.w3.org/2000/svg"
 width="24.000000pt" height="18.000000pt" viewBox="0 0 18.000000 24.000000"
 preserveAspectRatio="xMidYMid meet">

<g transform="translate(0.000000,24.000000) scale(0.100000,-0.100000)"
fill="#000000" stroke="none">
<path d="M130 215 c-7 -9 -10 -18 -7 -22 8 -7 37 15 37 28 0 14 -16 11 -30 -6z"/>
<path d="M46 161 c-9 -10 -16 -28 -16 -40 0 -24 26 -80 38 -82 55 -10 103 -4
118 12 15 17 16 22 4 45 -11 20 -12 29 -2 45 19 30 7 38 -62 38 -49 0 -68 -5
-80 -18z"/>
</g>
</svg>
